<svg xmlns="http://www.w3.org/2000/svg"  viewBox="0 0 24 24" width="192px" height="192px"><ellipse cx="12" cy="12" opacity=".35" rx="12" ry="8"/><path d="M17.954,7.044C17.981,7.193,18,7.344,18,7.5c0,1.301-0.998,2.358-2.268,2.477C13.075,9.734,14,6,14,6c-1,1-1,1-1,1h-2	c0,0,0,0-1-1c0,0,0.925,3.734-1.732,3.977C6.998,9.858,6,8.801,6,7.5c0-0.156,0.019-0.307,0.046-0.456C3.201,7.356,1,9.454,1,12	c0,2.134,1.553,3.943,3.728,4.66c-0.499-0.768-0.435-1.781,0.212-2.428C5.687,13.485,7.219,14.219,8,15c0,0,2-2,4,2c2-4,4-2,4-2	c0.781-0.781,2.313-1.515,3.061-0.768c0.647,0.647,0.711,1.66,0.212,2.428C21.447,15.943,23,14.134,23,12	C23,9.454,20.799,7.356,17.954,7.044z"/></svg>