<svg xmlns="http://www.w3.org/2000/svg"  viewBox="0 0 24 24" width="144px" height="144px"><path d="M 18 10 C 18 10 19 9 19 7 C 19 4 15.898438 2 12 2 C 8.101563 2 5 4 5 7 C 5 8.800781 6 10 6 10 C 5.398438 10 5 10.398438 5 11 L 5 11.800781 C 5 12.398438 5.398438 13 6 13 L 9 12.5 L 9 22 L 10 22 L 10 14 L 10.699219 14 L 10.699219 22 L 11.699219 22 L 11.699219 14 L 12.398438 14 L 12.398438 22 L 13.398438 22 L 13.398438 14 L 14 14 L 14 22 L 15 22 L 15 12.5 L 18 13 C 18.601563 13.101563 19 12.5 19 11.800781 L 19 11 C 19 10.398438 18.601563 10 18 10 Z M 11.601563 11.898438 L 11.398438 13 L 11 11.898438 L 11.699219 10.398438 Z M 9.5 10 C 7.601563 9.800781 7.300781 9.800781 7 8.199219 C 6.898438 7.601563 7.199219 7.101563 7.5 7.101563 C 8 7.101563 8.601563 8 9.5 8.601563 C 10.398438 9.199219 11.898438 9.601563 11.699219 9.699219 C 11.300781 10 9.898438 10 9.5 10 Z M 12.601563 13 L 12.300781 11.898438 L 12.199219 10.398438 L 12.898438 11.898438 Z M 17 8.199219 C 16.699219 9.601563 16.398438 9.699219 14.601563 9.898438 C 14.101563 10 12.699219 10 12.398438 9.699219 C 12.300781 9.601563 13.699219 9.199219 14.601563 8.601563 C 15.5 8 16.101563 7.101563 16.601563 7.101563 C 16.800781 7.101563 17.101563 7.699219 17 8.199219 Z"/></svg>